<svg width="54" height="27" viewBox="0 0 54 27" fill="none" xmlns="http://www.w3.org/2000/svg">
<path d="M6.616 21.712C6.29867 22.4773 5.972 23.2147 5.636 23.924C5.31867 24.6333 4.992 25.324 4.656 25.996H0.204C1.044 24.4467 1.81867 22.8787 2.528 21.292C3.256 19.7053 3.91867 18.1187 4.516 16.532C3.82533 14.8333 3.12533 13.1533 2.416 11.492C1.72533 9.812 1.02533 8.15067 0.316 6.508H4.152C4.46933 7.19867 4.80533 7.936 5.16 8.72C5.51467 9.48533 5.888 10.2973 6.28 11.156C6.54133 10.204 6.76533 9.28 6.952 8.384C7.13867 7.488 7.29733 6.592 7.428 5.696H0.316V2H11.88C11.4507 4.70667 10.956 7.24533 10.396 9.616C9.836 11.9867 9.22 14.2267 8.548 16.336C9.20133 17.848 9.864 19.416 10.536 21.04C11.2267 22.664 11.9173 24.3253 12.608 26.024H8.324L6.616 21.712ZM19.384 3.876V0.403999H23.696V3.876H25.768V7.628H23.696V19.248C23.696 19.752 23.668 20.3027 23.612 20.9C23.5747 21.4973 23.4907 22.104 23.36 22.72C23.2293 23.3173 23.0613 23.896 22.856 24.456C22.6507 25.0347 22.3987 25.548 22.1 25.996H16.444C16.78 25.6413 17.1253 25.212 17.48 24.708C17.8347 24.204 18.152 23.6533 18.432 23.056C18.712 22.4773 18.936 21.8707 19.104 21.236C19.2907 20.5827 19.384 19.92 19.384 19.248V7.628H12.076V3.876H19.384ZM13.896 19.052C13.672 17.3907 13.42 15.72 13.14 14.04C12.8787 12.3413 12.608 10.7827 12.328 9.364H16.024C16.2853 10.6707 16.5653 12.1547 16.864 13.816C17.1813 15.4773 17.4707 17.2227 17.732 19.052H13.896ZM53.796 0.543999V4.268L47.272 4.604V7.6H53.796V11.324H47.272V13.9H53.32V25.996H36.8V13.9H42.848V11.324H36.52V7.6H42.848V4.828L36.52 5.136V1.412L53.796 0.543999ZM34.56 5.864V22.244H36.24V25.996H30.108V9.308H28.4V5.864H34.56ZM41.112 22.16H48.924V17.68H41.112V22.16ZM30.556 4.912C30.5 4.576 30.4253 4.20267 30.332 3.792C30.2573 3.38133 30.1733 2.97067 30.08 2.56C29.9867 2.14933 29.884 1.75733 29.772 1.384C29.66 1.01067 29.5667 0.683999 29.492 0.403999H33.58C33.6547 0.609332 33.748 0.898665 33.86 1.272C33.9907 1.64533 34.112 2.04667 34.224 2.476C34.3547 2.88667 34.4667 3.316 34.56 3.764C34.672 4.19333 34.7653 4.576 34.84 4.912H30.556Z" fill="#2A313D"/>
</svg>
