<svg width="40" height="20" viewBox="0 0 40 20" fill="none" xmlns="http://www.w3.org/2000/svg">
<path d="M5.44 16.08C5.21333 16.6267 4.98 17.1533 4.74 17.66C4.51333 18.1667 4.28 18.66 4.04 19.14H0.86C1.46 18.0333 2.01333 16.9133 2.52 15.78C3.04 14.6467 3.51333 13.5133 3.94 12.38C3.44667 11.1667 2.94667 9.96667 2.44 8.78C1.94667 7.58 1.44667 6.39333 0.94 5.22H3.68C3.90667 5.71333 4.14667 6.24 4.4 6.8C4.65333 7.34667 4.92 7.92667 5.2 8.54C5.38667 7.86 5.54667 7.2 5.68 6.56C5.81333 5.92 5.92667 5.28 6.02 4.64H0.94V2H9.2C8.89333 3.93333 8.54 5.74667 8.14 7.44C7.74 9.13333 7.3 10.7333 6.82 12.24C7.28667 13.32 7.76 14.44 8.24 15.6C8.73333 16.76 9.22667 17.9467 9.72 19.16H6.66L5.44 16.08ZM14.56 3.34V0.859999H17.64V3.34H19.12V6.02H17.64V14.32C17.64 14.68 17.62 15.0733 17.58 15.5C17.5533 15.9267 17.4933 16.36 17.4 16.8C17.3067 17.2267 17.1867 17.64 17.04 18.04C16.8933 18.4533 16.7133 18.82 16.5 19.14H12.46C12.7 18.8867 12.9467 18.58 13.2 18.22C13.4533 17.86 13.68 17.4667 13.88 17.04C14.08 16.6267 14.24 16.1933 14.36 15.74C14.4933 15.2733 14.56 14.8 14.56 14.32V6.02H9.34V3.34H14.56ZM10.64 14.18C10.48 12.9933 10.3 11.8 10.1 10.6C9.91333 9.38667 9.72 8.27333 9.52 7.26H12.16C12.3467 8.19333 12.5467 9.25333 12.76 10.44C12.9867 11.6267 13.1933 12.8733 13.38 14.18H10.64ZM39.14 0.959999V3.62L34.48 3.86V6H39.14V8.66H34.48V10.5H38.8V19.14H27V10.5H31.32V8.66H26.8V6H31.32V4.02L26.8 4.24V1.58L39.14 0.959999ZM25.4 4.76V16.46H26.6V19.14H22.22V7.22H21V4.76H25.4ZM30.08 16.4H35.66V13.2H30.08V16.4ZM22.54 4.08C22.5 3.84 22.4467 3.57333 22.38 3.28C22.3267 2.98667 22.2667 2.69333 22.2 2.4C22.1333 2.10667 22.06 1.82667 21.98 1.56C21.9 1.29333 21.8333 1.06 21.78 0.859999H24.7C24.7533 1.00667 24.82 1.21333 24.9 1.48C24.9933 1.74667 25.08 2.03333 25.16 2.34C25.2533 2.63333 25.3333 2.94 25.4 3.26C25.48 3.56667 25.5467 3.84 25.6 4.08H22.54Z" fill="#5D687A"/>
</svg>
