<svg fill="none" xmlns="http://www.w3.org/2000/svg" viewBox="0 0 20 20" class="design-iconfont">
  <path d="M15 14.973C15 14.982 15 14.991 15 15C15 15 14.995 15 14.9851 15H12.9254C12.9154 15 12.9055 15 12.8955 15C12.8856 14.991 12.8806 14.982 12.8806 14.973L9.58209 6.75439H10.4179L7.1194 14.973C7.1194 14.982 7.11443 14.991 7.10448 15C7.10448 15 7.09453 15 7.07463 15H5.01493C5.00498 14.991 5 14.982 5 14.973L9 5.02699C9 5.009 9.01493 5 9.04478 5H10.9552C10.9851 5 11 5.009 11 5.02699L15 14.973ZM12.4627 10.6815V12.4359H7.53731V10.6815H12.4627Z" fill="#2A313D"/>
  <path d="M17.0247 18C17.0165 18 17.0082 17.9946 17 17.9837C17 17.9837 17 17.9782 17 17.9673V16.0082C17 15.9973 17 15.9864 17 15.9755C17.0082 15.9755 17.0165 15.9755 17.0247 15.9755H18.5V4.02449H17.0247C17.0165 4.02449 17.0082 4.02449 17 4.02449C17 4.01361 17 4.00272 17 3.99184V2.03265C17 2.02177 17 2.01633 17 2.01633C17.0082 2.00544 17.0165 2 17.0247 2H19.9753C19.9835 2 19.9877 2.00544 19.9877 2.01633C19.9959 2.01633 20 2.02177 20 2.03265V17.9673C20 17.9782 19.9959 17.9837 19.9877 17.9837C19.9877 17.9946 19.9835 18 19.9753 18H17.0247Z" fill="#2A313D"/>
  <path d="M2.97531 15.9755C2.98354 15.9755 2.98765 15.9755 2.98765 15.9755C2.99588 15.9864 3 15.9973 3 16.0082V17.9673C3 17.9782 2.99588 17.9837 2.98765 17.9837C2.98765 17.9946 2.98354 18 2.97531 18H0.0246914C0.0164609 18 0.00823048 17.9946 0 17.9837C0 17.9837 0 17.9782 0 17.9673V2.03265C0 2.02177 0 2.01633 0 2.01633C0.00823048 2.00544 0.0164609 2 0.0246914 2H2.97531C2.98354 2 2.98765 2.00544 2.98765 2.01633C2.99588 2.01633 3 2.02177 3 2.03265V3.99184C3 4.00272 2.99588 4.01361 2.98765 4.02449C2.98765 4.02449 2.98354 4.02449 2.97531 4.02449L1.5 4.05714V16.0082L2.97531 15.9755Z" fill="#2A313D"/>
</svg>
