<svg fill="none" xmlns="http://www.w3.org/2000/svg" viewBox="0 0 20 20" class="design-iconfont">
  <path d="M12.5 18.333C13.8807 18.333 15 17.2137 15 15.833L15.2559 15.8203C16.5164 15.6922 17.5 14.6273 17.5 13.333V5C17.5 3.61929 16.3807 2.5 15 2.5H7.5C6.20566 2.5 5.14082 3.48361 5.0127 4.74414L5 5L4.74414 5.0127C3.48361 5.14082 2.5 6.20566 2.5 7.5V15.833C2.5 17.2137 3.61929 18.333 5 18.333H12.5ZM15 7.5C15 6.11929 13.8807 5 12.5 5H6.66699L6.6709 4.91504C6.71346 4.49471 7.06844 4.16699 7.5 4.16699H15C15.4602 4.16699 15.833 4.53976 15.833 5V13.333C15.833 13.7932 15.4602 14.167 15 14.167V7.5ZM5 16.667C4.53976 16.667 4.16699 16.2932 4.16699 15.833V7.5C4.16699 7.03976 4.53976 6.66699 5 6.66699H12.5C12.9602 6.66699 13.333 7.03976 13.333 7.5V15.833C13.333 16.2932 12.9602 16.667 12.5 16.667H5ZM10.833 10.833C11.2932 10.833 11.667 10.4602 11.667 10C11.667 9.53976 11.2932 9.16699 10.833 9.16699H6.66699C6.20676 9.16699 5.83301 9.53976 5.83301 10C5.83301 10.4602 6.20676 10.833 6.66699 10.833H10.833ZM10.833 14.167C11.2932 14.167 11.667 13.7932 11.667 13.333C11.6668 12.8729 11.2931 12.5 10.833 12.5H6.66699C6.20686 12.5 5.83318 12.8729 5.83301 13.333C5.83301 13.7932 6.20675 14.167 6.66699 14.167H10.833Z" fill="#2A313D"/>
</svg>
