<svg fill="none" xmlns="http://www.w3.org/2000/svg" viewBox="0 0 16 17" class="design-iconfont">
  <path d="M12.4927 2.50854C12.9906 2.53802 13.3262 2.66286 13.5298 2.82104L13.6089 2.89038C13.7991 3.08062 13.958 3.43842 13.9917 4.00757C14.0248 4.56775 13.9314 5.27007 13.6919 6.05933C13.2133 7.63646 12.1748 9.47679 10.5757 11.0759C8.97656 12.675 7.13625 13.7135 5.55908 14.1921C4.76984 14.4317 4.0675 14.525 3.50732 14.4919C3.00933 14.4625 2.67378 14.3367 2.47021 14.1785L2.39014 14.1091C2.20004 13.9188 2.04196 13.5618 2.0083 12.9929C1.97516 12.4327 2.06853 11.7305 2.30811 10.9412C2.75692 9.4626 3.69786 7.75289 5.13135 6.22729L5.42432 5.92456C7.02347 4.32541 8.86383 3.28704 10.4409 2.80835C11.2302 2.56879 11.9325 2.47539 12.4927 2.50854Z" stroke="#2A313D" stroke-width="1.2" stroke-linecap="round" stroke-linejoin="round"/>
  <path d="M3.43115 2.50854C3.93701 2.47627 4.57182 2.5668 5.29639 2.80444C6.7439 3.27924 8.46556 4.31444 10.0757 5.92456C11.6864 7.53536 12.8537 9.38923 13.4546 10.9783C13.7555 11.7742 13.9053 12.4783 13.9126 13.0359C13.92 13.6029 13.7814 13.9366 13.6089 14.1091C13.4187 14.2994 13.0618 14.4583 12.4927 14.4919C11.9325 14.5251 11.2302 14.4317 10.4409 14.1921C8.96241 13.7434 7.25264 12.8024 5.72705 11.3689L5.42432 11.0759C3.8252 9.47681 2.78685 7.63645 2.30811 6.05933C2.06853 5.27007 1.97522 4.56774 2.0083 4.00757C2.03775 3.50981 2.16271 3.17404 2.3208 2.97046L2.39014 2.89038C2.58906 2.69146 2.92407 2.54097 3.43115 2.50854Z" stroke="#2A313D" stroke-width="1.2" stroke-linecap="round" stroke-linejoin="round"/>
  <path d="M9 8.5C9 9.05228 8.55228 9.5 8 9.5C7.44772 9.5 7 9.05228 7 8.5C7 7.94772 7.44772 7.5 8 7.5C8.55228 7.5 9 7.94772 9 8.5Z" fill="#2A313D"/>
</svg>
