<svg fill="none" xmlns="http://www.w3.org/2000/svg" viewBox="0 0 158 110" class="design-iconfont">
  <path opacity=".7" d="M157.232 101.874C157.232 97.77 155.211 93.7065 151.285 89.9151C147.359 86.1238 141.605 82.6789 134.35 79.7772C127.096 76.8754 118.484 74.5736 109.006 73.0032C99.5273 71.4328 89.3685 70.6245 79.1092 70.6245C68.85 70.6245 58.6912 71.4328 49.2129 73.0032C39.7346 74.5736 31.1224 76.8754 23.868 79.7772C16.6136 82.6789 10.8591 86.1238 6.93308 89.9151C3.00704 93.7065 0.986327 97.77 0.986328 101.874L79.1092 101.874H157.232Z" fill="url(#p2mg7djtq__paint0_linear_794_8286)"/>
  <path opacity=".8" d="M79.167 27.8174L48.56 38.0197V76.9741L79.167 67.2355V27.8174Z" fill="#9A9EB2"/>
  <path d="M48.5586 38.0195L79.1656 47.2944V86.2488L48.5586 76.9739V38.0195Z" fill="#D8DAE5"/>
  <path d="M79.167 27.8174L109.774 38.0197V76.9741L79.167 67.2355V27.8174Z" fill="#BABDCC"/>
  <path d="M109.773 38.0195L79.1664 47.2944V86.2488L109.773 76.9739V38.0195Z" fill="url(#p2mg7djtq__paint1_linear_794_8286)"/>
  <path d="M109.773 38.0195L79.1664 47.2944L84.7313 71.409H109.773V38.0195Z" fill="url(#p2mg7djtq__paint2_linear_794_8286)"/>
  <path d="M48.5586 38.0195L79.1656 47.2944L75.4557 68.6266H48.5586V38.0195Z" fill="url(#p2mg7djtq__paint3_linear_794_8286)"/>
  <path d="M79.167 27.8178L48.56 38.0202L36.0389 29.6728L66.1822 20.3979L79.167 27.8178Z" fill="#D8DAE5"/>
  <path d="M48.5597 38.02L79.1668 47.2949L65.2545 57.4972L34.6475 48.2224L48.5597 38.02Z" fill="#EBECF2"/>
  <path d="M79.167 27.8178L109.774 38.0202L123.686 28.7453L93.0793 18.543L79.167 27.8178Z" fill="#D8DAE5"/>
  <path d="M109.774 38.0205L79.1665 47.2954L94.0063 57.4977L124.613 48.2229L109.774 38.0205Z" fill="#D8DAE5"/>
  <path fill-rule="evenodd" clip-rule="evenodd" d="M91.8431 11.515C91.0867 10.993 90.2303 10.6109 89.3258 10.3836L89.0402 11.5201C89.814 11.7146 90.5409 12.0402 91.1776 12.4795L91.8431 11.515ZM86.5834 10.1742C85.6854 10.2584 84.7856 10.4937 83.9269 10.8948L84.423 11.9565C85.1559 11.6141 85.9245 11.413 86.6928 11.3409L86.5834 10.1742ZM94.398 14.7745C94.2338 14.3261 94.0248 13.9051 93.7775 13.514L92.7871 14.1403C92.9907 14.4622 93.1625 14.8084 93.2976 15.1773C93.4231 15.5201 93.524 15.8571 93.6019 16.1876L94.7425 15.9187C94.6535 15.5413 94.539 15.1596 94.398 14.7745ZM81.6694 12.4601C81.3501 12.7705 81.0467 13.1133 80.7625 13.489C80.5032 13.8319 80.2718 14.1902 80.0669 14.5625L81.0935 15.1275C81.2717 14.8038 81.4726 14.4929 81.6972 14.1958C81.946 13.8668 82.2101 13.5688 82.4862 13.3003L81.6694 12.4601ZM94.4684 20.6833C94.7551 19.9435 94.9281 19.1487 94.9702 18.3123L93.7998 18.2534C93.764 18.9649 93.6172 19.6366 93.3758 20.2599L94.4684 20.6833ZM79.1526 16.9268C78.9558 17.7213 78.8451 18.5523 78.8102 19.4097L79.9811 19.4574C80.0132 18.6694 80.1144 17.9177 80.2901 17.2087L79.1526 16.9268ZM91.4664 24.3952C92.1397 23.9352 92.7394 23.3911 93.2446 22.774L92.3379 22.0316C91.9067 22.5583 91.391 23.0275 90.8054 23.4275L91.4664 24.3952ZM68.1618 16.1006C68.4144 16.4031 68.6624 16.6964 68.9065 16.981L69.796 16.2181C69.5556 15.9378 69.311 15.6484 69.0612 15.3494L68.1618 16.1006ZM70.4387 18.7037C70.9924 19.3002 71.5328 19.8506 72.0692 20.3589L72.8752 19.5083C72.36 19.0201 71.8373 18.4879 71.2975 17.9064L70.4387 18.7037ZM87.0263 26.0254C87.8334 25.9275 88.6087 25.7425 89.3375 25.4788L88.9388 24.3769C88.295 24.6098 87.6063 24.7746 86.8852 24.8621L87.0263 26.0254ZM80.4076 24.058L80.0943 25.0932C79.316 24.8576 78.5843 24.5938 77.8862 24.2942L78.3483 23.2173C78.6103 23.3298 78.8781 23.4371 79.1526 23.5399C79.0463 22.9806 78.9623 22.427 78.9029 21.881L80.0678 21.7542C80.149 22.4997 80.2794 23.2659 80.4545 24.0475L80.4076 24.058ZM73.8387 21.8896C74.4724 22.384 75.115 22.8263 75.782 23.2237L76.3818 22.217C75.7595 21.8462 75.1571 21.4319 74.5594 20.9656L73.8387 21.8896ZM83.4909 25.9021C83.884 25.9755 84.2747 26.0286 84.6615 26.0623L84.7631 24.8949C84.4145 24.8645 84.0617 24.8166 83.7059 24.7502C83.3257 24.6792 82.9578 24.6052 82.6012 24.5278L82.3525 25.6729C82.7212 25.753 83.1004 25.8292 83.4909 25.9021ZM79.9512 26.6589C80.1921 27.4183 80.4663 28.1826 80.7695 28.9477L81.8589 28.5159C81.565 27.7743 81.3002 27.0358 81.0682 26.3046L79.9512 26.6589ZM81.7308 31.174C82.0693 31.9 82.4306 32.6233 82.8112 33.3406L83.8464 32.7913C83.4747 32.0909 83.1224 31.3855 82.7928 30.6788L81.7308 31.174ZM83.9949 35.4493C84.406 36.1437 84.8327 36.8288 85.2716 37.5012L86.2528 36.8606C85.8231 36.2023 85.4055 35.5317 85.0033 34.8523L83.9949 35.4493ZM86.6352 39.4956C87.1098 40.1586 87.5938 40.8046 88.0837 41.4296L89.006 40.7066C88.5267 40.0952 88.0529 39.4629 87.5882 38.8136L86.6352 39.4956ZM89.6185 43.297C89.8851 43.606 90.1523 43.908 90.4197 44.2023L91.2871 43.4144C91.0266 43.1277 90.766 42.8332 90.5058 42.5316L89.6185 43.297Z" fill="url(#p2mg7djtq__paint4_linear_794_8286)"/>
  <path opacity=".3" d="M67.148 11.5298C67.2317 6.99797 65.5271 4.96988 63.2565 3.83947C60.4153 2.42241 57.6759 2.48548 55.3744 0.81461C53.9838 -0.194888 53.7948 1.08145 53.7812 1.28983C53.5853 4.2923 54.6137 7.39471 57.7364 9.39304C61.1425 11.5718 65.3206 9.62952 67.1272 14.3568C67.1405 14.3916 67.1711 14.4175 67.2083 14.4249L67.5421 14.4915C67.6217 14.5074 67.6896 14.4356 67.6676 14.359C67.0596 12.2353 65.9599 10.2919 64.3974 8.60568C62.9891 7.08758 61.2046 5.77097 59.0929 4.58411C58.9219 4.48802 59.0525 4.23564 59.2317 4.31584C60.8849 5.05572 62.3472 5.88302 63.6384 6.98201C64.9879 8.1304 66.1512 9.57765 67.148 11.5298L67.148 11.5298Z" fill="url(#p2mg7djtq__paint5_linear_794_8286)"/>
  <path d="M42.6514 95.6241L48.9012 87.291V98.749L42.6514 95.6241Z" fill="#D8DAE5"/>
  <path d="M55.1512 95.6241L48.9014 87.291V98.749L55.1512 95.6241Z" fill="#9A9EB2"/>
  <path d="M116.608 85.2076L119.733 81.041V87.2908L116.608 85.2076Z" fill="#D8DAE5"/>
  <path d="M122.858 85.2076L119.733 81.041V87.2908L122.858 85.2076Z" fill="#9A9EB2"/>
  <defs>
    <linearGradient id="p2mg7djtq__paint0_linear_794_8286" x1="79.1092" y1="70.6245" x2="79.1092" y2="101.874" gradientUnits="userSpaceOnUse">
      <stop stop-color="#EBECF2"/>
      <stop offset=".927271" stop-color="#EBECF2" stop-opacity="0"/>
    </linearGradient>
    <linearGradient id="p2mg7djtq__paint1_linear_794_8286" x1="94.4699" y1="45.6249" x2="94.4699" y2="97.9672" gradientUnits="userSpaceOnUse">
      <stop stop-color="#9A9EB2"/>
      <stop offset="1" stop-color="#BABDCC"/>
    </linearGradient>
    <linearGradient id="p2mg7djtq__paint2_linear_794_8286" x1="95.1655" y1="37.514" x2="95.1655" y2="70.9034" gradientUnits="userSpaceOnUse">
      <stop stop-color="#696C80"/>
      <stop offset="1" stop-color="#696C80" stop-opacity="0"/>
    </linearGradient>
    <linearGradient id="p2mg7djtq__paint3_linear_794_8286" x1="63.1665" y1="37.5561" x2="63.1665" y2="68.1631" gradientUnits="userSpaceOnUse">
      <stop stop-color="#999EAD"/>
      <stop offset="1" stop-color="#999EAD" stop-opacity="0"/>
    </linearGradient>
    <linearGradient id="p2mg7djtq__paint4_linear_794_8286" x1="82.3475" y1="44.9172" x2="82.5429" y2="30.9763" gradientUnits="userSpaceOnUse">
      <stop stop-color="#E6E7ED"/>
      <stop offset="1" stop-color="#C6C9D2"/>
    </linearGradient>
    <linearGradient id="p2mg7djtq__paint5_linear_794_8286" x1="61.9081" y1="1.89845" x2="59.7074" y2="12.9284" gradientUnits="userSpaceOnUse">
      <stop stop-color="#60656F"/>
      <stop offset="1" stop-color="#9094A1"/>
    </linearGradient>
  </defs>
</svg>
