<svg width="28" height="18" viewBox="0 0 28 18" fill="none" xmlns="http://www.w3.org/2000/svg">
<path d="M0.493906 1.26H3.95391V14.34H10.4939V17.16H0.493906V1.26ZM11.9891 0.399999H15.4091V3.62H11.9891V0.399999ZM12.0091 5.2H15.4091V17.16H12.0091V5.2ZM21.4084 17.56C20.2084 17.56 19.2884 17.1867 18.6484 16.44C18.0084 15.6933 17.6884 14.5933 17.6884 13.14V0.76H21.0684V12.38C21.0684 12.94 21.1018 13.3867 21.1684 13.72C21.2351 14.0533 21.3751 14.3 21.5884 14.46C21.7751 14.6067 22.0218 14.7 22.3284 14.74C22.6484 14.78 22.9418 14.7867 23.2084 14.76L23.5284 17.34C23.2751 17.4067 22.9618 17.46 22.5884 17.5C22.2284 17.54 21.8351 17.56 21.4084 17.56ZM24.5867 0.399999H28.0067V3.62H24.5867V0.399999ZM24.6067 5.2H28.0067V17.16H24.6067V5.2Z" fill="#2A313D"/>
</svg>
