<svg fill="none" xmlns="http://www.w3.org/2000/svg" viewBox="0 0 12 12" class="design-iconfont">
  <g clip-path="url(#vlh2q1vzb__clip0_639_4293)" fill="#3462ED">
    <path d="M6 0.600098L6.27663 2.62271C6.50056 4.25996 7.85606 5.54102 9.56482 5.73032L12 6.0001L9.56483 6.26987C7.85606 6.45918 6.50056 7.74024 6.27663 9.37749L6 11.4001L5.72337 9.37749C5.49944 7.74024 4.14394 6.45918 2.43518 6.26987L0 6.0001L2.43517 5.73032C4.14394 5.54102 5.49944 4.25996 5.72337 2.62271L6 0.600098Z"/>
    <path d="M2.53125 2.0401C2.60977 2.60534 3.07872 3.04687 3.66893 3.11125L3.75 3.1201L3.66893 3.12894C3.07872 3.19332 2.60977 3.63485 2.53125 4.2001C2.45273 3.63485 1.98378 3.19332 1.39357 3.12894L1.3125 3.1201L1.39357 3.11125C1.98378 3.04687 2.45273 2.60534 2.53125 2.0401Z"/>
    <path d="M9.28125 0.600098C9.37184 1.25952 9.91812 1.77524 10.6064 1.85116L10.6875 1.8601L10.6064 1.86904C9.91812 1.94495 9.37184 2.46067 9.28125 3.1201C9.19066 2.46067 8.64438 1.94495 7.95606 1.86904L7.875 1.8601L7.95606 1.85116C8.64438 1.77524 9.19066 1.25952 9.28125 0.600098Z"/>
    <path d="M9.84375 7.8001C9.93434 8.45952 10.4806 8.97524 11.1689 9.05116L11.25 9.0601L11.1689 9.06904C10.4806 9.14495 9.93434 9.66067 9.84375 10.3201C9.75316 9.66067 9.20688 9.14495 8.51856 9.06904L8.4375 9.0601L8.51856 9.05116C9.20688 8.97524 9.75316 8.45952 9.84375 7.8001Z"/>
  </g>
  <defs>
    <clipPath id="vlh2q1vzb__clip0_639_4293">
      <path fill="#fff" d="M0 0H12V12H0z"/>
    </clipPath>
  </defs>
</svg>
