<svg fill="none" xmlns="http://www.w3.org/2000/svg" viewBox="0 0 16 17" class="design-iconfont">
  <path d="M8 6.09961C9.87169 6.09961 11.5382 6.42582 12.7139 6.92969C13.3026 7.18202 13.7402 7.46793 14.0225 7.75391C14.3022 8.03737 14.4004 8.28868 14.4004 8.5C14.4004 8.71132 14.3022 8.96263 14.0225 9.24609C13.7402 9.53207 13.3026 9.81798 12.7139 10.0703C11.5382 10.5742 9.87169 10.9004 8 10.9004C6.12831 10.9004 4.46182 10.5742 3.28613 10.0703C2.69741 9.81798 2.25981 9.53207 1.97754 9.24609C1.69778 8.96263 1.59961 8.71132 1.59961 8.5C1.59961 8.28868 1.69778 8.03737 1.97754 7.75391C2.25981 7.46793 2.69741 7.18202 3.28613 6.92969C4.46182 6.42582 6.12831 6.09961 8 6.09961Z" stroke="#2A313D" stroke-width="1.2" stroke-linecap="round" stroke-linejoin="round"/>
  <path d="M8 2.09961C8.21132 2.09961 8.46263 2.19778 8.74609 2.47754C9.03207 2.75981 9.31798 3.19741 9.57031 3.78613C10.0742 4.96182 10.4004 6.62831 10.4004 8.5C10.4004 10.3717 10.0742 12.0382 9.57031 13.2139C9.31798 13.8026 9.03207 14.2402 8.74609 14.5225C8.46263 14.8022 8.21132 14.9004 8 14.9004C7.78868 14.9004 7.53737 14.8022 7.25391 14.5225C6.96793 14.2402 6.68202 13.8026 6.42969 13.2139C5.92582 12.0382 5.59961 10.3717 5.59961 8.5C5.59961 6.62831 5.92582 4.96182 6.42969 3.78613C6.68202 3.19741 6.96793 2.75981 7.25391 2.47754C7.53737 2.19778 7.78868 2.09961 8 2.09961Z" stroke="#2A313D" stroke-width="1.2" stroke-linecap="round" stroke-linejoin="round"/>
  <path d="M8 2.09961C11.5346 2.09961 14.4004 4.96538 14.4004 8.5C14.4004 12.0346 11.5346 14.9004 8 14.9004C4.46538 14.9004 1.59961 12.0346 1.59961 8.5C1.59961 4.96538 4.46538 2.09961 8 2.09961Z" stroke="#2A313D" stroke-width="1.2" stroke-linejoin="round"/>
</svg>
