<svg fill="none" xmlns="http://www.w3.org/2000/svg" viewBox="0 0 28 28" class="design-iconfont">
  <g opacity=".3" clip-path="url(#m58sd3z7n__clip0_490_1989)">
    <path d="M14 28C21.732 28 28 21.732 28 14C28 6.26801 21.732 0 14 0C6.26801 0 0 6.26801 0 14C0 21.732 6.26801 28 14 28Z" fill="#3462ED"/>
    <path d="M6.27163 12.8882C5.90965 12.7674 5.90679 12.5724 6.27907 12.4482L19.5005 8.03542C19.8666 7.91324 20.0766 8.11841 19.974 8.47789L16.1964 21.7162C16.0918 22.0827 15.8808 22.0955 15.7262 21.747L13 16L17.5 10.5L12 15L6.27163 12.8882Z" fill="#F4F5F9"/>
  </g>
  <defs>
    <clipPath id="m58sd3z7n__clip0_490_1989">
      <path fill="#fff" d="M0 0H28V28H0z"/>
    </clipPath>
  </defs>
</svg>
