<svg fill="none" xmlns="http://www.w3.org/2000/svg" viewBox="0 0 20 20" class="design-iconfont">
  <path fill-rule="evenodd" clip-rule="evenodd" d="M10.4167 6.40434C5.35417 6.40434 1.25 10.5677 1.25 15.7035C1.25 16.0227 1.28458 16.4514 1.35333 16.9902C1.35875 17.0328 1.37723 17.0727 1.40623 17.1045C1.43523 17.1362 1.47334 17.1582 1.51533 17.1674C1.55731 17.1766 1.60112 17.1726 1.64075 17.156C1.68038 17.1393 1.71388 17.1108 1.73667 17.0743L1.86875 16.8677C1.99542 16.6731 2.10625 16.5148 2.20125 16.3927C3.69542 14.4693 6.13792 13.3823 9.35542 13.3381L10.4167 13.3364V17.076C10.4167 17.3102 10.6083 17.5002 10.8454 17.5002C10.9592 17.5002 11.0679 17.4556 11.1483 17.376L18.145 10.4502C18.2046 10.3914 18.2519 10.3213 18.2843 10.2441C18.3166 10.1668 18.3332 10.0839 18.3332 10.0002C18.3332 9.91644 18.3166 9.83354 18.2843 9.75629C18.2519 9.67903 18.2046 9.60897 18.145 9.55017L11.1483 2.62434C11.0676 2.54467 10.9587 2.5 10.8452 2.5C10.7318 2.5 10.6229 2.54467 10.5421 2.62434C10.4617 2.70392 10.4167 2.81184 10.4167 2.92434V6.40434ZM10.4167 8.071H12.0833V5.89517L16.2304 10.0002L12.0833 14.1052V11.6698H9.56167C7.14292 11.6698 5.0275 12.196 3.32333 13.2168C4.3375 10.2206 7.13333 8.071 10.4167 8.071Z" fill="#2A313D"/>
</svg>
