<svg width="38" height="20" viewBox="0 0 38 20" fill="none" xmlns="http://www.w3.org/2000/svg">
<path d="M9.04 19.14C9.29333 18.8733 9.52667 18.5867 9.74 18.28C9.95333 17.9867 10.1333 17.6467 10.28 17.26C10.4267 16.8867 10.54 16.4533 10.62 15.96C10.7133 15.4667 10.76 14.88 10.76 14.2V3.6H6.32V1.16H18.14V3.6H14.14V14.2C14.14 14.64 14.12 15.1 14.08 15.58C14.0533 16.0467 14 16.5067 13.92 16.96C13.84 17.4 13.74 17.8067 13.62 18.18C13.5 18.5667 13.3533 18.8867 13.18 19.14H9.04ZM4.86 4.76V16.46H6.4V19.14H1.48V7.24H1.49012e-08V4.76H4.86ZM1.76 4.1C1.64 3.44667 1.51333 2.88 1.38 2.4C1.24667 1.92 1.09333 1.40667 0.92 0.859999H4.14C4.32667 1.39333 4.49333 1.9 4.64 2.38C4.8 2.86 4.96 3.43333 5.12 4.1H1.76ZM29.42 17.56V12.8H28.48C28.4133 13.88 28.2733 14.82 28.06 15.62C27.86 16.4067 27.6333 17.08 27.38 17.64H24.52C24.8267 17.0533 25.1133 16.3467 25.38 15.52C25.6467 14.6933 25.82 13.7867 25.9 12.8H24.52V6.22H25.84C25.7467 5.88667 25.6467 5.54667 25.54 5.2C25.4333 4.84 25.3467 4.56667 25.28 4.38H27.94C28.0067 4.55333 28.0933 4.82 28.2 5.18C28.32 5.52667 28.4267 5.87333 28.52 6.22H29.44C29.56 5.9 29.66 5.58 29.74 5.26C29.8333 4.94 29.9133 4.64667 29.98 4.38H32.62C32.5667 4.60667 32.4867 4.89333 32.38 5.24C32.2867 5.57333 32.1867 5.9 32.08 6.22H33.5V12.8H31.96V15.26H34V17.56H29.42ZM37.64 1.3V14.44C37.64 15.4 37.5267 16.2933 37.3 17.12C37.0867 17.9467 36.8467 18.62 36.58 19.14H33.08C33.3067 18.8733 33.52 18.5667 33.72 18.22C33.9333 17.8867 34.12 17.52 34.28 17.12C34.44 16.72 34.5667 16.2933 34.66 15.84C34.7533 15.3867 34.8 14.92 34.8 14.44V3.7H25.58V1.3H37.64ZM20.44 4.94H23.28V19.14H20.44V4.94ZM21.88 4.12C21.6933 3.61333 21.48 3.08667 21.24 2.54C21 1.98 20.74 1.42 20.46 0.859999H23.6C23.8667 1.3 24.1267 1.8 24.38 2.36C24.6333 2.90667 24.8867 3.49333 25.14 4.12H21.88ZM27.1 10.74H30.88V8.32H27.1V10.74Z" fill="#5D687A"/>
</svg>
