<svg width="54" height="26" viewBox="0 0 54 26" fill="none" xmlns="http://www.w3.org/2000/svg">
<path d="M13.056 25.996C13.4107 25.6227 13.7373 25.2213 14.036 24.792C14.3347 24.3813 14.5867 23.9053 14.792 23.364C14.9973 22.8413 15.156 22.2347 15.268 21.544C15.3987 20.8533 15.464 20.032 15.464 19.08V4.24H9.248V0.823998H25.796V4.24H20.196V19.08C20.196 19.696 20.168 20.34 20.112 21.012C20.0747 21.6653 20 22.3093 19.888 22.944C19.776 23.56 19.636 24.1293 19.468 24.652C19.3 25.1933 19.0947 25.6413 18.852 25.996H13.056ZM7.204 5.864V22.244H9.36V25.996H2.472V9.336H0.4V5.864H7.204ZM2.864 4.94C2.696 4.02533 2.51867 3.232 2.332 2.56C2.14533 1.888 1.93067 1.16933 1.688 0.403999H6.196C6.45733 1.15067 6.69067 1.86 6.896 2.532C7.12 3.204 7.344 4.00667 7.568 4.94H2.864ZM41.588 23.784V17.12H40.272C40.1787 18.632 39.9827 19.948 39.684 21.068C39.404 22.1693 39.0867 23.112 38.732 23.896H34.728C35.1573 23.0747 35.5587 22.0853 35.932 20.928C36.3053 19.7707 36.548 18.5013 36.66 17.12H34.728V7.908H36.576C36.4453 7.44133 36.3053 6.96533 36.156 6.48C36.0067 5.976 35.8853 5.59333 35.792 5.332H39.516C39.6093 5.57467 39.7307 5.948 39.88 6.452C40.048 6.93733 40.1973 7.42267 40.328 7.908H41.616C41.784 7.46 41.924 7.012 42.036 6.564C42.1667 6.116 42.2787 5.70533 42.372 5.332H46.068C45.9933 5.64933 45.8813 6.05067 45.732 6.536C45.6013 7.00267 45.4613 7.46 45.312 7.908H47.3V17.12H45.144V20.564H48V23.784H41.588ZM53.096 1.02V19.416C53.096 20.76 52.9373 22.0107 52.62 23.168C52.3213 24.3253 51.9853 25.268 51.612 25.996H46.712C47.0293 25.6227 47.328 25.1933 47.608 24.708C47.9067 24.2413 48.168 23.728 48.392 23.168C48.616 22.608 48.7933 22.0107 48.924 21.376C49.0547 20.7413 49.12 20.088 49.12 19.416V4.38H36.212V1.02H53.096ZM29.016 6.116H32.992V25.996H29.016V6.116ZM31.032 4.968C30.7707 4.25867 30.472 3.52133 30.136 2.756C29.8 1.972 29.436 1.188 29.044 0.403999H33.44C33.8133 1.02 34.1773 1.72 34.532 2.504C34.8867 3.26933 35.2413 4.09067 35.596 4.968H31.032ZM38.34 14.236H43.632V10.848H38.34V14.236Z" fill="#2A313D"/>
</svg>
