<svg fill="none" xmlns="http://www.w3.org/2000/svg" viewBox="0 0 20 20" class="design-iconfont">
  <path d="M4.3 3.74413C4.30004 3.53602 4.3839 3.31853 4.56133 3.14458C4.74146 2.9681 5.00086 2.85609 5.28555 2.85605H14.7145C14.9991 2.85609 15.2585 2.9681 15.4387 3.14458C15.6161 3.31853 15.7 3.53602 15.7 3.74413V17.5475L10.4312 14.4848L10.3281 14.4336C10.0823 14.3309 9.80392 14.348 9.56875 14.4848L4.3 17.5475V3.74413ZM2.5 18.087C2.50038 19.2244 3.57121 19.9729 4.52852 19.5834L4.71836 19.4897L10 16.4183L15.2816 19.4897C16.2189 20.0346 17.3486 19.3909 17.4859 18.3081L17.5 18.087V3.74413C17.5 2.97245 17.1859 2.25079 16.6562 1.7319C16.1292 1.21561 15.4298 0.937543 14.7145 0.9375H5.28555C4.57018 0.937543 3.8708 1.21561 3.34375 1.7319C2.81412 2.25079 2.50004 2.97245 2.5 3.74413V18.087Z" fill="#2A313D"/>
  <path d="M10 6.875V8.75M10 8.75L10 10.625M10 8.75L8.125 8.75M10 8.75L11.875 8.75" stroke="#2A313D" stroke-width="1.5" stroke-linecap="round" stroke-linejoin="round"/>
</svg>
